<svg width="16" height="16" viewBox="0 0 16 16" fill="none" xmlns="http://www.w3.org/2000/svg">
<path d="M13.6549 3.55999L8.91792 0.749992C8.64245 0.586747 8.32813 0.50061 8.00792 0.50061C7.68771 0.50061 7.37339 0.586747 7.09792 0.749992L2.36292 3.55999C2.08129 3.72805 1.84826 3.96654 1.68677 4.252C1.52529 4.53745 1.4409 4.86003 1.44192 5.18799V10.812C1.44025 11.139 1.5235 11.4609 1.68354 11.7461C1.84358 12.0313 2.07492 12.27 2.35492 12.439L7.09092 15.251C7.36639 15.4142 7.68071 15.5004 8.00092 15.5004C8.32113 15.5004 8.63545 15.4142 8.91092 15.251L13.6469 12.439C13.927 12.2701 14.1584 12.0314 14.3184 11.7461C14.4785 11.4609 14.5617 11.139 14.5599 10.812V5.18799C14.5625 4.86183 14.4806 4.54054 14.3222 4.25542C14.1638 3.9703 13.9342 3.73106 13.6559 3.56099L13.6549 3.55999ZM9.98592 12.341V12.745C9.98553 12.7699 9.97892 12.7942 9.96669 12.8159C9.95446 12.8376 9.93701 12.8558 9.91592 12.869L9.67692 13.006C9.63892 13.026 9.60692 13.006 9.60692 12.953V12.557C9.43763 12.6399 9.24402 12.6588 9.06192 12.61C9.04754 12.6006 9.03695 12.5864 9.03201 12.5699C9.02708 12.5534 9.0281 12.5358 9.03492 12.52L9.12092 12.155C9.12571 12.135 9.13447 12.1163 9.14667 12.0998C9.15887 12.0833 9.17425 12.0694 9.19192 12.059C9.19792 12.0564 9.20439 12.0551 9.21092 12.0551C9.21745 12.0551 9.22392 12.0564 9.22992 12.059C9.39744 12.1039 9.5759 12.0813 9.72692 11.996C9.83391 11.9435 9.92477 11.8632 9.98989 11.7634C10.055 11.6636 10.092 11.5481 10.0969 11.429C10.0969 11.223 9.98492 11.137 9.71292 11.136C9.36892 11.136 9.05192 11.07 9.04292 10.562C9.04695 10.345 9.09899 10.1316 9.19529 9.93704C9.2916 9.74253 9.42978 9.57176 9.59992 9.43699V9.02999C9.59979 9.00475 9.60616 8.97989 9.61842 8.95782C9.63068 8.93575 9.64841 8.91722 9.66992 8.90399L9.90092 8.75699C9.93892 8.73699 9.97092 8.75699 9.97092 8.81099V9.21999C10.1126 9.15531 10.2709 9.13609 10.4239 9.16499C10.44 9.17408 10.4521 9.18894 10.4576 9.20658C10.4632 9.22421 10.4619 9.2433 10.4539 9.25999L10.3729 9.62199C10.363 9.65895 10.3399 9.69098 10.3079 9.71199C10.2966 9.7158 10.2843 9.7158 10.2729 9.71199C10.1237 9.67965 9.9678 9.7054 9.83692 9.78399C9.74134 9.82528 9.65947 9.89289 9.60087 9.97894C9.54226 10.065 9.50933 10.1659 9.50592 10.27C9.50592 10.455 9.60392 10.512 9.93092 10.518C10.3689 10.518 10.5579 10.717 10.5629 11.157C10.5586 11.3845 10.5049 11.6083 10.4054 11.8129C10.306 12.0176 10.1632 12.1981 9.98692 12.342L9.98592 12.341ZM12.4669 11.661C12.47 11.6782 12.4683 11.6959 12.462 11.7121C12.4556 11.7284 12.4449 11.7425 12.4309 11.753L11.2329 12.48C11.2274 12.4847 11.2206 12.4875 11.2134 12.488C11.2062 12.4886 11.199 12.4868 11.1929 12.483C11.1868 12.4792 11.1819 12.4736 11.1791 12.467C11.1762 12.4604 11.1754 12.4531 11.1769 12.446V12.136C11.1777 12.1194 11.1834 12.1033 11.1931 12.0898C11.2029 12.0763 11.2164 12.066 11.2319 12.06L12.4109 11.354C12.4166 11.3495 12.4235 11.3468 12.4307 11.3464C12.438 11.346 12.4452 11.3478 12.4513 11.3517C12.4575 11.3555 12.4623 11.3612 12.4651 11.3678C12.4679 11.3745 12.4685 11.3819 12.4669 11.389V11.662V11.661ZM13.2939 4.74699L8.81192 7.51499C8.25292 7.84599 7.84192 8.20799 7.84192 8.88199V14.402C7.84192 14.806 8.00692 15.064 8.25492 15.143C8.17311 15.1584 8.09015 15.1667 8.00692 15.168C7.74292 15.168 7.48492 15.096 7.25892 14.961L2.52192 12.15C2.29211 12.0106 2.10228 11.8141 1.97086 11.5797C1.83944 11.3452 1.7709 11.0808 1.77192 10.812V5.18799C1.77056 4.91888 1.83893 4.65401 1.97036 4.41917C2.1018 4.18434 2.29182 3.98755 2.52192 3.84799L7.25992 1.03799C7.48528 0.904398 7.74244 0.833906 8.00442 0.833906C8.2664 0.833906 8.52356 0.904398 8.74892 1.03799L13.4849 3.84999C13.6778 3.96662 13.8429 4.12397 13.9686 4.31103C14.0944 4.49809 14.1777 4.71036 14.2129 4.93299C14.0589 4.59899 13.7049 4.50599 13.2929 4.74799H13.2949L13.2939 4.74699Z" fill="black"/>
</svg>
