<svg width="256" height="256" viewBox="0 0 256 256" fill="none" xmlns="http://www.w3.org/2000/svg">
<path d="M0 222.991C0 241.223 14.779 256 33.009 256H222.99C241.223 256 256 241.221 256 222.991V33.01C256 14.777 241.221 0 222.991 0H33.01C14.777 0 0 14.779 0 33.009V222.99V222.991Z" fill="#563D7C"/>
<path d="M106.158 113.238V76.985H138.069C141.109 76.985 144.039 77.238 146.861 77.745C149.683 78.251 152.18 79.155 154.351 80.458C156.521 81.761 158.258 83.57 159.561 85.885C160.863 88.201 161.515 91.168 161.515 94.785C161.515 101.298 159.561 106.002 155.653 108.896C151.746 111.791 146.753 113.238 140.674 113.238H106.158ZM72.075 50.5V205.5H147.187C154.134 205.5 160.9 204.632 167.485 202.895C174.07 201.158 179.931 198.481 185.069 194.863C190.206 191.245 194.295 186.577 197.334 180.861C200.374 175.144 201.893 168.378 201.893 160.563C201.893 150.866 199.541 142.581 194.838 135.707C190.134 128.832 183.006 124.02 173.454 121.27C180.401 117.942 185.648 113.672 189.194 108.462C192.739 103.252 194.512 96.74 194.512 88.924C194.512 81.688 193.318 75.61 190.93 70.689C188.542 65.769 185.177 61.825 180.835 58.858C176.494 55.891 171.284 53.756 165.205 52.454C159.127 51.151 152.397 50.5 145.016 50.5H72.075ZM106.158 179.015V136.466H143.279C150.66 136.466 156.594 138.166 161.081 141.568C165.567 144.969 167.811 150.649 167.811 158.609C167.811 162.662 167.123 165.99 165.748 168.595C164.373 171.2 162.528 173.263 160.212 174.782C157.897 176.302 155.219 177.387 152.18 178.039C149.14 178.689 145.957 179.015 142.628 179.015H106.158Z" fill="white"/>
</svg>
