<svg width="256" height="288" viewBox="0 0 256 288" fill="none" xmlns="http://www.w3.org/2000/svg">
<path d="M255.569 84.452C255.567 79.622 254.534 75.354 252.445 71.692C250.393 68.089 247.32 65.07 243.198 62.683C209.173 43.064 175.115 23.505 141.101 3.86601C131.931 -1.42799 123.04 -1.23399 113.938 4.13601C100.395 12.122 32.59 50.969 12.385 62.672C4.064 67.49 0.015 74.862 0.013 84.443C0 123.898 0.013 163.353 0 202.808C0 207.532 0.991 211.718 2.988 215.325C5.041 219.036 8.157 222.138 12.374 224.579C32.58 236.282 100.394 275.126 113.934 283.115C123.04 288.488 131.931 288.68 141.104 283.385C175.119 263.745 209.179 244.186 243.209 224.567C247.426 222.127 250.542 219.023 252.595 215.315C254.589 211.707 255.582 207.522 255.582 202.797C255.582 202.797 255.582 123.908 255.569 84.452Z" fill="#A179DC"/>
<path d="M128.182 143.241L2.98804 215.325C5.04104 219.036 8.15704 222.138 12.374 224.579C32.58 236.282 100.394 275.126 113.934 283.115C123.04 288.488 131.931 288.68 141.104 283.385C175.119 263.745 209.179 244.186 243.209 224.567C247.426 222.127 250.542 219.023 252.595 215.315L128.182 143.241Z" fill="#280068"/>
<path d="M255.569 84.4519C255.567 79.6219 254.534 75.3539 252.445 71.6919L128.182 143.242L252.595 215.315C254.589 211.707 255.58 207.522 255.582 202.797C255.582 202.797 255.582 123.908 255.569 84.4519Z" fill="#390091"/>
<path d="M201.892 116.294V129.768H215.366V116.294H222.103V129.768H235.577V136.505H222.103V149.978H235.577V156.715H222.103V170.189H215.366V156.715H201.892V170.189H195.155V156.715H181.682V149.978H195.155V136.505H181.682V129.768H195.155V116.294H201.892ZM215.366 136.504H201.892V149.978H215.366V136.505V136.504Z" fill="white"/>
<path d="M128.457 48.626C163.601 48.626 194.284 67.712 210.719 96.082L210.559 95.809L169.209 119.617C161.063 105.824 146.129 96.515 128.996 96.323L128.456 96.32C102.331 96.32 81.1511 117.5 81.1511 143.625C81.1425 151.859 83.2937 159.952 87.3901 167.095C95.5441 181.33 110.873 190.931 128.457 190.931C146.15 190.931 161.566 181.208 169.678 166.821L169.481 167.166L210.768 191.084C194.513 219.214 164.25 238.241 129.515 238.62L128.457 238.626C93.2021 238.626 62.4321 219.422 46.0381 190.902C38.0351 176.979 33.4561 160.838 33.4561 143.625C33.4561 91.159 75.988 48.625 128.456 48.625L128.457 48.626Z" fill="white"/>
</svg>
