<svg width="32" height="32" viewBox="0 0 32 32" fill="none" xmlns="http://www.w3.org/2000/svg">
<path d="M5.43802 30.113H10.044V25.513H5.43802V30.113ZM1.58702 21.663V25.513H5.43702V21.663H1.58702ZM30.725 11.056C29.287 6.41899 25.575 2.72499 20.937 1.26899C10.306 -2.05001 0.499023 5.85599 0.499023 15.994H6.48702C6.48702 9.63199 12.799 4.71299 19.493 7.13799C20.7238 7.58508 21.8417 8.29627 22.7682 9.22157C23.6947 10.1469 24.4073 11.2638 24.856 12.494C27.3 19.182 22.375 25.482 16.019 25.494V25.513H16V31.501C26.163 31.501 34.05 21.701 30.725 11.057V11.056ZM16.019 25.494V19.538H10.044V25.513H16V25.494H16.019Z" fill="black"/>
</svg>
