<svg width="250" height="250" viewBox="0 0 250 250" fill="none" xmlns="http://www.w3.org/2000/svg">
<path d="M142.117 102.117H161.719V122.164H171.641C176.276 122.143 180.877 121.373 185.266 119.883C187.572 119.119 189.793 118.116 191.891 116.891C189.205 113.175 187.612 108.784 187.289 104.211C186.466 97.5382 188.184 90.8002 192.102 85.3359L194.164 82.9531L196.617 84.9297C203.125 89.7022 207.535 96.8075 208.922 104.758C216.49 102.43 224.671 103.191 231.68 106.875L234.375 108.438L232.961 111.203C230.094 116.04 225.853 119.914 220.779 122.335C215.704 124.755 210.024 125.612 204.461 124.797C187.484 167.086 150.555 187.109 105.695 187.109C94.524 187.774 83.3804 185.411 73.4403 180.27C63.5001 175.129 55.132 167.4 49.2187 157.898L49.0234 157.562L47.2578 153.977C43.2645 144.917 41.7053 134.972 42.7344 125.125L43.0078 122.156H59.75V102.117H79.3594V82.5078H118.578V62.8984H142.109V102.117H142.117Z" fill="#3A4E55"/>
<path d="M205.656 109.539C205.791 105.234 204.848 100.963 202.913 97.114C200.979 93.2653 198.114 89.9607 194.578 87.5C191.516 91.9953 190.072 97.3974 190.482 102.821C190.892 108.245 193.133 113.368 196.836 117.352C189.556 122.747 180.701 125.594 171.641 125.453H45.9609C44.8821 135.483 46.6899 145.612 51.1718 154.648L52.6015 157.266C53.506 158.801 54.4945 160.285 55.5625 161.711C60.7291 162.044 65.4921 162.161 69.8515 162.062C76.9155 162.106 83.9454 161.081 90.7031 159.023C91.0812 158.893 91.4957 158.918 91.8554 159.093C92.2151 159.268 92.4905 159.579 92.6211 159.957C92.7516 160.335 92.7266 160.75 92.5515 161.109C92.3764 161.469 92.0656 161.744 91.6875 161.875C90.9843 162.117 90.25 162.352 89.4921 162.563C84.7896 163.878 79.955 164.664 75.0781 164.906C75.4218 164.906 74.7187 164.961 74.7187 164.961L74.0781 165.016C68.8511 165.245 63.6162 165.229 58.3906 164.969L58.3125 165.023C64.406 171.361 71.7861 176.321 79.9565 179.569C88.1268 182.816 96.8978 184.277 105.68 183.852C149.117 183.852 185.961 164.594 202.281 121.352C213.859 122.539 224.984 119.586 230.039 109.711C226.264 107.797 222.096 106.785 217.864 106.755C213.631 106.725 209.45 107.678 205.648 109.539" fill="#00AADA"/>
<path d="M205.656 109.539C205.791 105.234 204.848 100.963 202.913 97.114C200.979 93.2653 198.114 89.9607 194.578 87.5C191.516 91.9953 190.072 97.3974 190.482 102.821C190.892 108.245 193.133 113.368 196.836 117.352C189.556 122.747 180.701 125.594 171.641 125.453H53.4062C52.7615 132.456 53.9376 139.506 56.8204 145.921C59.7031 152.335 64.1947 157.895 69.8593 162.062C76.9233 162.106 83.9532 161.081 90.7109 159.023C90.8981 158.959 91.0963 158.932 91.294 158.944C91.4917 158.956 91.6851 159.006 91.8632 159.093C92.0413 159.18 92.2006 159.301 92.332 159.449C92.4633 159.597 92.5642 159.77 92.6288 159.957C92.6935 160.144 92.7206 160.342 92.7087 160.54C92.6967 160.738 92.646 160.931 92.5593 161.109C92.4726 161.287 92.3517 161.447 92.2034 161.578C92.0552 161.709 91.8825 161.81 91.6953 161.875C90.9921 162.117 90.2578 162.352 89.4999 162.563C84.6715 163.916 79.7099 164.738 74.7031 165.016L74.5546 164.844C89.3359 172.43 110.773 172.398 135.352 162.961C163.396 151.63 187.929 133.058 206.445 109.141L205.664 109.516" fill="#27B9EC"/>
<path d="M46.1953 138.531C46.9357 144.14 48.6183 149.584 51.1719 154.633L52.6016 157.25C53.506 158.785 54.4945 160.269 55.5625 161.695C60.7292 162.029 65.4922 162.146 69.8516 162.047C76.9155 162.09 83.9454 161.066 90.7031 159.008C90.8904 158.943 91.0885 158.916 91.2862 158.928C91.4839 158.94 91.6774 158.991 91.8555 159.077C92.0336 159.164 92.1928 159.285 92.3242 159.433C92.4556 159.581 92.5565 159.754 92.6211 159.941C92.6857 160.129 92.7128 160.327 92.7009 160.524C92.689 160.722 92.6382 160.916 92.5515 161.094C92.4648 161.272 92.3439 161.431 92.1957 161.562C92.0474 161.694 91.8747 161.795 91.6875 161.859C90.9844 162.102 90.25 162.336 89.4922 162.547C84.6693 163.88 79.7157 164.684 74.7187 164.945H73.9375C71.6641 165.07 69.25 165.148 66.7344 165.148C63.9922 165.148 61.1953 165.094 58.1406 164.945C64.2531 171.288 71.6504 176.251 79.8371 179.502C88.0238 182.754 96.8108 184.218 105.609 183.797C142.797 183.797 175.141 169.68 193.891 138.484L46.1953 138.531Z" fill="#088CB9"/>
<path d="M54.5312 138.531C56.4261 148.047 61.9124 156.469 69.8516 162.047C76.9155 162.09 83.9454 161.066 90.7031 159.008C91.0813 158.877 91.4958 158.902 91.8555 159.077C92.2152 159.252 92.4906 159.563 92.6211 159.941C92.7516 160.32 92.7266 160.734 92.5515 161.094C92.3764 161.453 92.0656 161.729 91.6875 161.859C90.9844 162.102 90.25 162.336 89.4922 162.547C84.6447 163.877 79.6681 164.681 74.6484 164.945C89.4297 172.531 110.805 172.422 135.375 162.977C150.538 157.005 164.703 148.76 177.383 138.523L54.5312 138.531Z" fill="#039CC7"/>
<path d="M77.2578 106.805H78.6016V120.969H77.2578V106.805ZM74.6797 106.805H76.0781V120.969H74.6797V106.805ZM72.1016 106.805H73.5V120.969H72.1094V106.805H72.1016ZM69.5234 106.805H70.9219V120.969H69.5313V106.805H69.5234ZM66.9453 106.805H68.3438V120.969H66.9531V106.805H66.9453ZM64.4219 106.805H65.7656V120.969H64.4375V106.805H64.4219ZM63.0078 105.391H80V122.391H63.0156V105.391H63.0078Z" fill="#00ACD3"/>
<path d="M96.875 87.1953H98.2187V101.359H96.875V87.1953ZM94.2969 87.1953H95.6953V101.359H94.2969V87.1953ZM91.7187 87.1953H93.1172V101.359H91.7187V87.1953ZM89.1406 87.1953H90.5391V101.359H89.1406V87.1953ZM86.5625 87.1953H87.9531V101.359H86.5625V87.1953ZM84.0391 87.1953H85.3828V101.359H84.0391V87.1953ZM82.625 85.7812H99.625V102.781H82.6328V85.7734L82.625 85.7812Z" fill="#00ACD3"/>
<path d="M96.875 106.805H98.2187V120.969H96.875V106.805ZM94.2969 106.805H95.6953V120.969H94.2969V106.805ZM91.7187 106.805H93.1172V120.969H91.7187V106.805ZM89.1406 106.805H90.5391V120.969H89.1406V106.805ZM86.5625 106.805H87.9531V120.969H86.5625V106.805ZM84.0391 106.805H85.3828V120.969H84.0391V106.805ZM82.625 105.391H99.625V122.391H82.6328V105.391H82.625Z" fill="#26C2EE"/>
<path d="M116.477 106.805H117.82V120.969H116.477V106.805ZM113.898 106.805H115.297V120.969H113.906V106.805H113.898ZM111.32 106.805H112.719V120.969H111.328V106.805H111.32ZM108.742 106.805H110.156V120.969H108.758V106.805H108.742ZM106.164 106.805H107.562V120.969H106.164V106.805ZM103.641 106.805H104.984V120.969H103.641V106.805ZM102.227 105.391H119.227V122.391H102.242V105.391H102.227Z" fill="#00ACD3"/>
<path d="M116.477 87.1953H117.82V101.359H116.477V87.1953ZM113.898 87.1953H115.297V101.359H113.906V87.1953H113.898ZM111.32 87.1953H112.719V101.359H111.328V87.1953H111.32ZM108.742 87.1953H110.156V101.359H108.758V87.1953H108.742ZM106.164 87.1953H107.562V101.359H106.164V87.1953ZM103.641 87.1953H104.984V101.359H103.641V87.1953ZM102.227 85.7812H119.227V102.781H102.242V85.7734L102.227 85.7812Z" fill="#26C2EE"/>
<path d="M136.094 106.805H137.437V120.969H136.094V106.805ZM133.516 106.805H134.914V120.969H133.516V106.805ZM130.938 106.805H132.336V120.969H130.938V106.805ZM128.359 106.805H129.758V120.969H128.359V106.805ZM125.781 106.805H127.18V120.969H125.781V106.805ZM123.258 106.805H124.602V120.969H123.258V106.805ZM121.875 105.391H138.875V122.391H121.875V105.391Z" fill="#26C2EE"/>
<path d="M136.094 87.1953H137.437V101.359H136.094V87.1953ZM133.516 87.1953H134.914V101.359H133.516V87.1953ZM130.938 87.1953H132.336V101.359H130.938V87.1953ZM128.359 87.1953H129.758V101.359H128.359V87.1953ZM125.781 87.1953H127.18V101.359H125.781V87.1953ZM123.258 87.1953H124.602V101.359H123.258V87.1953ZM121.844 85.7812H138.844V102.781H121.875V85.7734L121.844 85.7812Z" fill="#00ACD3"/>
<path d="M136.094 67.5781H137.437V81.7422H136.094V67.5781ZM133.516 67.5781H134.914V81.7422H133.516V67.5781ZM130.938 67.5781H132.336V81.7422H130.938V67.5781ZM128.359 67.5781H129.758V81.7422H128.359V67.5781ZM125.781 67.5781H127.18V81.7422H125.781V67.5781ZM123.258 67.5781H124.602V81.7422H123.258V67.5781ZM121.875 66.1641H138.875V83.1641H121.875V66.1641Z" fill="#26C2EE"/>
<path d="M155.703 106.805H157.031V120.969H155.703V106.805ZM153.125 106.805H154.516V120.969H153.125V106.805ZM150.547 106.805H151.945V120.969H150.547V106.805ZM147.969 106.805H149.367V120.969H147.969V106.805ZM145.391 106.805H146.789V120.969H145.391V106.805ZM142.867 106.805H144.211V120.969H142.867V106.805ZM141.453 105.391H158.453V122.391H141.461V105.391H141.453Z" fill="#00ACD3"/>
<path d="M98.5625 149.945C99.4896 149.945 100.396 150.22 101.167 150.735C101.938 151.25 102.538 151.982 102.893 152.839C103.248 153.696 103.341 154.638 103.16 155.547C102.979 156.457 102.533 157.292 101.877 157.947C101.222 158.603 100.386 159.049 99.477 159.23C98.5677 159.411 97.6252 159.318 96.7687 158.964C95.9121 158.609 95.1801 158.008 94.665 157.237C94.1499 156.466 93.875 155.56 93.875 154.633C93.875 153.39 94.3689 152.197 95.2479 151.318C96.127 150.439 97.3193 149.945 98.5625 149.945Z" fill="#D5EEF2"/>
<path d="M98.5625 151.273C98.9792 151.273 99.3925 151.35 99.7812 151.5C99.599 151.606 99.4437 151.752 99.3274 151.928C99.2111 152.103 99.1369 152.304 99.1108 152.513C99.0846 152.722 99.1071 152.934 99.1765 153.133C99.2458 153.332 99.3603 153.512 99.5108 153.659C99.6613 153.807 99.8439 153.917 100.044 153.983C100.245 154.048 100.457 154.066 100.666 154.035C100.874 154.005 101.073 153.926 101.246 153.806C101.419 153.686 101.562 153.528 101.664 153.344C101.94 154.009 101.996 154.744 101.822 155.443C101.648 156.142 101.255 156.766 100.699 157.224C100.144 157.682 99.4563 157.95 98.7374 157.988C98.0185 158.025 97.3065 157.831 96.7064 157.433C96.1063 157.036 95.6497 156.456 95.4041 155.779C95.1584 155.102 95.1366 154.365 95.3419 153.675C95.5472 152.985 95.9687 152.379 96.5443 151.947C97.1199 151.514 97.8191 151.278 98.539 151.273" fill="#3A4E55"/>
<path d="M15.625 140.227H233.75C229 139.023 218.727 137.398 220.414 131.172C211.781 141.164 190.953 138.203 185.695 133.258C179.844 141.75 145.766 138.523 143.391 131.906C136.055 140.5 113.312 140.5 105.977 131.906C103.633 138.523 69.5234 141.75 63.6719 133.258C58.4141 138.187 37.5938 141.164 28.9531 131.172C30.6484 137.422 20.3594 139.023 15.6172 140.227" fill="#3A4E55"/>
<path d="M111.023 183.734C101.43 179.646 93.7383 172.079 89.4922 162.555C84.4188 163.9 79.2133 164.686 73.9688 164.898C71.6979 165.023 69.3099 165.089 66.8047 165.094C63.9193 165.094 60.8776 165.008 57.6797 164.836C63.85 171.261 71.3314 176.282 79.6154 179.558C87.8994 182.834 96.7916 184.288 105.687 183.82C107.479 183.82 109.258 183.786 111.023 183.719" fill="#C0DBE1"/>
<path d="M93.8047 170.102C92.1017 167.747 90.656 165.217 89.4922 162.555C84.4188 163.9 79.2133 164.686 73.9688 164.898C80.1453 167.995 86.9027 169.763 93.8047 170.086" fill="#D5EEF2"/>
</svg>
