<svg width="397" height="397" viewBox="0 0 397 397" fill="none" xmlns="http://www.w3.org/2000/svg">
<g clip-path="url(#clip0_18_6)">
<path d="M158.841 69.1109L148.318 93.9068C162.191 95.4144 181.045 98.8502 194.474 102.877L205.218 77.4429C193.303 74.3458 172.5 70.4255 158.841 69.1109ZM181.565 32.6697L170.605 57.9118C184.699 58.7809 203.55 62.6321 216.983 65.8292L227.726 40.3954C215.81 37.7131 195.005 34.2074 181.565 32.6697ZM58.9612 236.036L89.203 262.927C95.0902 256.083 106.207 243.893 115.577 234.314L213.416 134.299L320.127 229.183C328.118 236.29 335.677 243.427 341.94 249.412L373.536 217.113C366.404 211.604 354.52 201.87 347.175 195.339L235.281 95.8449C228.801 90.0825 220.812 82.1461 215.846 77.3136C212.357 81.2928 203.638 91.0322 197.319 97.492L87.4939 209.76C80.0851 217.333 68.106 228.34 58.9612 236.036ZM173.64 343.005L204.746 370.665C211.073 362.545 223.062 349.465 231.56 340.776L348.357 221.381L319.844 196.028L202.175 316.314C192.369 326.338 181.697 336.009 173.64 343.005Z" fill="#0E3E68"/>
<path d="M114.197 251.711L126.572 267.493C129.917 263.207 135.081 257.406 139.213 252.945C146.601 244.966 180.158 208.727 187.044 201.289C191.677 196.285 197.752 190.173 201.198 186.9L188.823 171.118C185.824 175.255 179.879 182.123 175.871 186.45C168.609 194.294 135.678 229.857 127.79 238.376C123.533 242.974 117.958 248.546 114.197 251.711ZM227.167 194.951L210.693 200.188C209.606 202.93 206.606 207.066 202.474 211.529C193.959 220.724 149.133 269.134 140.619 278.329C136.612 282.656 131.068 287.972 125.303 293.301L137.677 309.082C142.651 303.038 148.816 296.156 151.947 292.776C163.091 280.741 206.039 234.36 212.3 227.599C215.407 236.574 217.396 248.549 215.9 262.271C213.779 282.274 205.066 306.256 189.205 330.56L212.483 330.755C224.988 308.955 234.638 283.513 236.528 256.137C237.987 236.176 234.043 218.465 228.691 202.497C228.115 200.877 227.528 197.476 227.167 194.951Z" fill="#0E3E68"/>
</g>
<defs>
<clipPath id="clip0_18_6">
<rect width="397" height="397" fill="white"/>
</clipPath>
</defs>
</svg>
