<svg width="815" height="815" viewBox="0 0 815 815" fill="none" xmlns="http://www.w3.org/2000/svg">
<path d="M326.35 141.877L304.729 192.781C333.233 195.876 371.969 202.929 399.561 211.195L421.634 158.982C397.154 152.624 354.413 144.576 326.35 141.877ZM373.036 67.0674L350.518 118.887C379.476 120.671 418.207 128.577 445.805 135.14L467.878 82.9276C443.395 77.4209 400.651 70.224 373.036 67.0674ZM121.14 484.558L183.273 539.761C195.369 525.711 218.209 500.686 237.46 481.022L438.478 275.701L657.721 470.489C674.14 485.078 689.671 499.731 702.537 512.016L767.454 445.71C752.8 434.402 728.384 414.418 713.293 401.011L483.4 196.76C470.086 184.93 453.673 168.637 443.469 158.717C436.302 166.886 418.387 186.88 405.404 200.141L179.762 430.615C164.54 446.162 139.928 468.759 121.14 484.558ZM356.755 704.154L420.664 760.936C433.663 744.268 458.295 717.414 475.755 699.578L715.722 454.472L657.14 402.425L415.381 649.359C395.235 669.938 373.309 689.791 356.755 704.154Z" fill="#0F4C81"/>
<path d="M234.625 516.737L260.05 549.136C266.923 540.336 277.533 528.428 286.023 519.269C301.201 502.89 370.147 428.494 384.295 413.225C393.813 402.953 406.294 390.404 413.375 383.685L387.95 351.287C381.788 359.78 369.572 373.88 361.339 382.763C346.419 398.866 278.76 471.872 262.553 489.362C253.806 498.8 242.353 510.238 234.625 516.737ZM466.73 400.213L432.883 410.965C430.649 416.595 424.486 425.085 415.996 434.247C398.502 453.124 306.405 552.505 288.911 571.381C280.678 580.264 269.287 591.177 257.443 602.117L282.867 634.513C293.085 622.106 305.753 607.977 312.185 601.039C335.081 576.332 423.32 481.116 436.184 467.236C442.567 485.662 446.655 510.246 443.582 538.415C439.223 579.479 421.322 628.712 388.734 678.604L436.559 679.005C462.253 634.252 482.079 582.022 485.962 525.822C488.961 484.845 480.858 448.486 469.861 415.706C468.678 412.38 467.472 405.397 466.73 400.213Z" fill="#0F4C81"/>
</svg>
