<svg width="256" height="285" viewBox="0 0 256 285" fill="none" xmlns="http://www.w3.org/2000/svg">
<path d="M230.4 0C244.396 0 255.77 11.232 255.997 25.177L256 25.6V258.844C256 272.84 244.765 284.214 230.823 284.441L230.4 284.444H25.6C11.604 284.444 0.23 273.209 0.003 259.268L0 258.844V25.6C0 11.601 11.235 0.23 25.177 0.003L25.6 0H230.4ZM230.4 14.222H25.6C19.426 14.222 14.382 19.17 14.226 25.307L14.222 25.6V258.844C14.222 265.018 19.17 270.062 25.307 270.218L25.6 270.222H230.4C236.577 270.222 241.618 265.275 241.774 259.138L241.778 258.844V25.6C241.778 19.328 236.676 14.222 230.4 14.222ZM64 184.89L96 213.334L64 241.779V184.889V184.89ZM92.444 42.667V123.417C106.645 118.795 126.496 113.777 145.778 113.777C163.36 113.777 173.884 120.69 179.616 126.489C191.725 138.739 192.013 154.309 191.997 156.386V156.444L192 241.778H163.556V156.836C163.416 150.197 160.216 142.222 145.778 142.222C117.146 142.222 85.064 156.479 84.112 156.905L84.092 156.914L64 166.016V42.666H92.444V42.667ZM192 42.667C190.08 58.823 183.53 74.311 170.667 88.889H142.222C153.401 74.222 160.42 58.788 163.556 42.667H192Z" fill="#430098"/>
</svg>
