<svg width="256" height="413" viewBox="0 0 256 413" fill="none" xmlns="http://www.w3.org/2000/svg">
<g clip-path="url(#clip0_34_174)">
<path d="M87.932 36.714C83.382 32.143 77.036 29.32 69.981 29.32C62.952 29.32 56.655 32.143 52.159 36.714H52.029C47.494 41.264 44.671 47.614 44.671 54.644C44.671 61.699 47.494 67.996 52.03 72.519L52.159 72.621C56.655 77.171 62.952 79.967 69.981 79.967C77.036 79.967 83.383 77.17 87.932 72.621L88 72.52C92.558 67.997 95.354 61.7 95.354 54.644C95.354 47.615 92.558 41.264 88 36.715H87.933L87.932 36.714ZM69.981 383.354C76.7017 383.359 83.1529 380.711 87.932 375.986L87.999 375.852C92.557 371.365 95.353 365.014 95.353 358.035C95.353 350.979 92.557 344.655 87.999 340.083H87.932C83.382 335.458 77.036 332.663 69.981 332.663C62.952 332.663 56.655 335.458 52.159 340.083H52.029C47.494 344.655 44.671 350.979 44.671 358.035C44.671 365.015 47.494 371.365 52.03 375.852L52.159 375.986C54.4987 378.326 57.2774 380.182 60.3357 381.446C63.3939 382.711 66.6717 383.359 69.981 383.354ZM207.953 306.634C214.228 304.988 219.91 300.961 223.376 294.873L223.844 293.986C226.926 288.21 227.488 281.546 225.842 275.642C224.183 269.318 220.107 263.725 214.032 260.224L213.68 259.987C207.762 256.745 201.018 256.04 194.823 257.713C188.526 259.283 182.871 263.488 179.423 269.527C175.931 275.508 175.2 282.407 176.873 288.758C178.598 295.002 182.634 300.648 188.669 304.176H188.709C194.756 307.651 201.607 308.28 207.953 306.634ZM95.97 180.387C89.316 173.75 80.146 169.593 69.982 169.593C59.858 169.593 50.71 173.75 44.07 180.387C37.46 187.001 33.384 196.147 33.384 206.285C33.384 216.45 37.46 225.624 44.07 232.314C50.71 238.896 59.858 243.026 69.982 243.026C80.146 243.026 89.316 238.896 95.97 232.314C102.593 225.624 106.67 216.45 106.67 206.285C106.67 196.148 102.593 187.001 95.97 180.387ZM81.36 137.223C96.086 139.649 109.336 146.705 119.447 156.896H119.527C121.15 158.537 122.693 160.255 124.152 162.043L149.436 147.414C146.037 137.143 145.881 126.404 148.61 116.342C152.219 102.855 160.96 90.782 174.063 83.205L174.496 82.945C187.456 75.6 202.192 74.084 215.496 77.692C222.433 79.5448 228.935 82.7495 234.63 87.1221C240.325 91.4947 245.101 96.949 248.682 103.172V103.198C256.211 116.213 257.741 131.158 254.146 144.591C250.565 158.069 241.783 170.222 228.693 177.746L225.241 179.789H224.889C212.78 185.56 199.463 186.452 187.234 183.236C177.19 180.569 167.976 174.976 160.764 167.006L135.521 181.591C138.507 189.481 140.035 197.849 140.03 206.285C140.03 214.987 138.42 223.375 135.52 231.109L160.764 245.639C167.976 237.567 177.19 232.077 187.234 229.41C200.703 225.726 215.639 227.296 228.694 234.9L229.527 235.293V235.346C242.14 242.973 250.605 254.787 254.146 268.113C255.998 275.025 256.468 282.235 255.531 289.329C254.593 296.423 252.266 303.263 248.682 309.457L248.228 310.371L248.174 310.291C240.61 322.864 228.694 331.382 215.536 334.986C202.036 338.54 187.104 337.024 174.063 329.526V329.42C160.96 321.842 152.219 309.742 148.61 296.287C145.881 286.252 146.037 275.508 149.436 265.241L124.152 250.657C122.702 252.437 121.132 254.109 119.527 255.728L119.447 255.804C109.337 265.946 96.086 273.002 81.359 275.352V304.569C91.853 306.763 101.259 312.017 108.632 319.385L108.667 319.465C118.547 329.29 124.661 342.982 124.661 358.035C124.661 373.038 118.546 386.645 108.667 396.524L108.632 396.68C98.686 406.559 85.034 412.673 69.982 412.673C55.01 412.673 41.34 406.559 31.422 396.68H31.386V396.524C21.493 386.645 15.366 373.038 15.366 358.034C15.3563 350.866 16.7671 343.766 19.5167 337.147C22.2664 330.527 26.3005 324.517 31.386 319.465V319.385H31.421C38.781 312.017 48.2 306.763 58.667 304.569V275.352C43.927 273.002 30.717 265.946 20.619 255.804L20.512 255.728C7.89 243.053 0 225.624 0 206.285C0 187.001 7.89 169.571 20.511 156.896H20.618C30.716 146.706 43.926 139.649 58.666 137.223V108.136C48.3545 105.888 38.9009 100.737 31.42 93.293H31.385V93.213C21.492 83.285 15.365 69.695 15.365 54.643C15.365 39.667 21.492 25.948 31.385 16.069L31.42 16.02C41.34 6.115 55.01 0 69.98 0C85.033 0 98.685 6.115 108.63 16.02V16.07H108.666C118.546 25.948 124.66 39.667 124.66 54.643C124.66 69.695 118.545 83.285 108.666 93.213L108.631 93.293C101.258 100.612 91.852 105.861 81.358 108.136V137.223H81.36ZM223.377 117.831L223.167 117.519C219.675 111.637 214.109 107.716 207.954 106.017C201.608 104.345 194.757 105.054 188.67 108.528H188.71C182.635 111.976 178.572 117.622 176.873 123.946C176.013 127.162 175.795 130.516 176.233 133.816C176.671 137.115 177.755 140.297 179.424 143.177L179.54 143.337C181.2 146.177 183.405 148.661 186.028 150.646C188.651 152.632 191.64 154.08 194.824 154.907C198.029 155.802 201.381 156.044 204.681 155.617C207.981 155.191 211.162 154.106 214.034 152.427L214.359 152.271C220.264 148.743 224.197 143.177 225.843 137.063C227.516 130.765 226.851 123.866 223.377 117.831Z" fill="#1A1919"/>
</g>
<defs>
<clipPath id="clip0_34_174">
<rect width="256" height="413" fill="white"/>
</clipPath>
</defs>
</svg>
