<svg width="256" height="264" viewBox="0 0 256 264" fill="none" xmlns="http://www.w3.org/2000/svg">
<path d="M255.008 158.086C253.473 153.437 249.452 150.199 244.252 149.422C241.8 149.056 238.992 149.212 235.669 149.897C229.877 151.092 225.58 151.547 222.444 151.635C234.281 131.65 243.906 108.86 249.447 87.407C258.407 52.718 253.619 36.915 248.024 29.767C233.217 10.847 211.614 0.683032 185.552 0.372032C171.649 0.202032 159.444 2.94703 153.077 4.92103C147.149 3.87503 140.775 3.29103 134.087 3.18303C121.55 2.98303 110.473 5.71603 101.008 11.333C95.7681 9.56103 87.3581 7.06303 77.6461 5.46903C54.8041 1.71903 36.3941 4.64103 22.9281 14.154C6.62211 25.672 -0.936888 45.684 0.461112 73.634C0.905112 82.508 5.86911 109.508 13.6851 135.114C18.1771 149.832 22.9671 162.054 27.9221 171.444C34.9491 184.759 42.4681 192.6 50.9091 195.416C55.6401 196.992 64.2361 198.096 73.2771 190.566C74.4231 191.954 75.9521 193.333 77.9811 194.614C80.5581 196.239 83.7091 197.567 86.8561 198.354C98.1971 201.189 108.82 200.48 117.883 196.506C117.939 198.118 117.982 199.658 118.018 200.988C118.078 203.145 118.138 205.26 118.217 207.238C118.754 220.612 119.664 231.011 122.36 238.287C122.508 238.687 122.707 239.297 122.917 239.944C124.262 244.062 126.511 250.956 132.233 256.355C138.158 261.948 145.325 263.663 151.889 263.663C155.181 263.663 158.322 263.231 161.077 262.641C170.897 260.536 182.05 257.33 190.118 245.842C197.746 234.982 201.454 218.625 202.125 192.852C202.212 192.123 202.292 191.427 202.369 190.764L202.529 189.402L204.326 189.56L204.789 189.591C214.791 190.047 227.021 187.926 234.532 184.437C240.467 181.683 259.486 171.642 255.008 158.086Z" fill="black"/>
<path d="M237.906 160.722C208.166 166.857 206.121 156.788 206.121 156.788C237.521 110.195 250.648 51.0519 239.321 36.577C208.417 -2.90805 154.922 15.766 154.029 16.25L153.742 16.302C147.866 15.082 141.291 14.356 133.9 14.235C120.444 14.015 110.236 17.7629 102.49 23.6369C102.49 23.6369 7.06007 -15.6771 11.4991 73.081C12.4431 91.963 38.5631 215.954 69.7171 178.503C81.1041 164.808 92.1071 153.229 92.1071 153.229C97.5711 156.859 104.113 158.711 110.971 158.046L111.504 157.594C111.338 159.294 111.414 160.957 111.717 162.926C103.691 171.893 106.05 173.467 90.0061 176.77C73.7711 180.116 83.3081 186.072 89.5351 187.63C97.0841 189.517 114.548 192.191 126.348 175.672L125.878 177.557C129.022 180.076 131.23 193.94 130.86 206.509C130.49 219.077 130.243 227.706 132.72 234.446C135.199 241.186 137.668 256.351 158.76 251.832C176.383 248.055 185.516 238.268 186.787 221.942C187.688 210.336 189.729 212.052 189.857 201.675L191.494 196.763C193.381 181.03 191.794 175.954 202.651 178.315L205.291 178.547C213.281 178.91 223.741 177.261 229.88 174.408C243.098 168.274 250.938 158.031 237.904 160.722H237.906Z" fill="#336791"/>
<path d="M108.076 81.5249C105.396 81.1519 102.969 81.4969 101.741 82.4269C101.051 82.9499 100.837 83.5559 100.779 83.9729C100.625 85.0779 101.399 86.2999 101.875 86.9299C103.221 88.7139 105.187 89.9399 107.133 90.2099C107.415 90.2499 107.696 90.2679 107.975 90.2679C111.22 90.2679 114.171 87.7409 114.431 85.8759C114.756 83.5399 111.365 81.9829 108.076 81.5259" fill="white"/>
<path d="M196.86 81.599C196.604 79.768 193.346 79.246 190.254 79.676C187.166 80.106 184.172 81.5 184.422 83.335C184.622 84.762 187.199 87.198 190.249 87.198C190.507 87.198 190.767 87.181 191.029 87.144C193.065 86.862 194.559 85.569 195.269 84.824C196.349 83.688 196.975 82.422 196.86 81.599Z" fill="white"/>
<path d="M247.802 160.025C246.668 156.596 243.018 155.493 236.954 156.745C218.949 160.461 212.501 157.887 210.384 156.328C224.379 135.008 235.892 109.236 242.103 85.1909C245.045 73.8009 246.67 63.2229 246.803 54.6009C246.95 45.1379 245.338 38.1839 242.014 33.9359C228.612 16.8109 208.942 7.62494 185.132 7.37294C168.763 7.18894 154.933 11.3779 152.252 12.5559C146.606 11.1519 140.451 10.2899 133.75 10.1799C121.462 9.98094 110.84 12.9229 102.046 18.9199C98.2259 17.4979 88.3539 14.1089 76.2809 12.1639C55.4089 8.80394 38.8229 11.3499 26.9869 19.7349C12.8639 29.7409 6.34394 47.6269 7.60694 72.8949C8.03194 81.3959 12.8759 107.548 20.5199 132.593C30.5819 165.557 41.5199 184.218 53.0279 188.057C54.3749 188.506 55.9279 188.82 57.6409 188.82C61.8389 188.82 66.9859 186.928 72.3409 180.49C78.8725 172.654 85.629 165.009 92.6019 157.564C97.1259 159.992 102.096 161.348 107.179 161.484C107.189 161.617 107.202 161.75 107.214 161.882C106.339 162.925 105.482 163.984 104.644 165.057C101.122 169.528 100.389 170.459 89.0519 172.793C85.8269 173.459 77.2619 175.224 77.1359 181.228C76.9999 187.788 87.2609 190.543 88.4299 190.835C92.5039 191.855 96.4289 192.358 100.172 192.358C109.275 192.358 117.286 189.366 123.688 183.577C123.491 206.963 124.466 230.007 127.274 237.028C129.574 242.776 135.192 256.823 152.938 256.822C155.542 256.822 158.408 256.519 161.561 255.843C180.082 251.873 188.125 243.687 191.236 225.64C192.901 215.995 195.758 192.964 197.102 180.61C199.938 181.495 203.589 181.9 207.536 181.899C215.768 181.899 225.267 180.15 231.224 177.385C237.916 174.277 249.992 166.651 247.802 160.025ZM203.696 76.5449C203.635 80.1919 203.133 83.5029 202.601 86.9589C202.028 90.6759 201.436 94.5189 201.287 99.1839C201.14 103.724 201.707 108.444 202.255 113.009C203.363 122.229 204.5 131.721 200.099 141.087C199.368 139.792 198.717 138.453 198.149 137.078C197.602 135.752 196.414 133.622 194.769 130.674C188.37 119.198 173.385 92.3239 181.056 81.3579C183.341 78.0939 189.14 74.7379 203.696 76.5449ZM186.052 14.7579C207.386 15.2289 224.262 23.2099 236.21 38.4779C245.374 50.1889 235.283 103.476 206.07 149.447C205.776 149.073 205.481 148.701 205.184 148.33L204.814 147.868C212.363 135.401 210.887 123.066 209.573 112.13C209.033 107.642 208.523 103.403 208.653 99.4209C208.787 95.2009 209.345 91.5809 209.885 88.0809C210.548 83.7679 211.223 79.3049 211.037 74.0439C211.176 73.4919 211.232 72.8399 211.159 72.0659C210.684 67.0209 204.924 51.9219 193.184 38.2559C186.762 30.7809 177.397 22.4159 164.61 16.7739C170.11 15.6339 177.631 14.5709 186.052 14.7579ZM66.6739 175.778C60.7739 182.872 56.6999 181.512 55.3599 181.066C46.6299 178.154 36.4999 159.702 27.5689 130.442C19.8409 105.124 15.3249 79.6649 14.9669 72.5259C13.8389 49.9479 19.3119 34.2129 31.2349 25.7569C50.6389 11.9969 82.5409 20.2329 95.3599 24.4099C95.1759 24.5919 94.9839 24.7619 94.8019 24.9469C73.7659 46.1909 74.2649 82.4869 74.3169 84.7059C74.3149 85.5619 74.3869 86.7739 74.4849 88.4409C74.8469 94.5459 75.5209 105.908 73.7209 118.775C72.0489 130.732 75.7349 142.435 83.8319 150.884C84.6629 151.749 85.5363 152.573 86.4489 153.352C82.8449 157.212 75.0119 165.748 66.6739 175.778ZM89.1529 145.785C82.6269 138.975 79.6629 129.503 81.0199 119.795C82.9199 106.203 82.2189 94.3649 81.8419 88.0049C81.7889 87.1149 81.7419 86.3349 81.7149 85.7199C84.7879 82.9949 99.0289 75.3649 109.185 77.6919C113.819 78.7529 116.643 81.9089 117.817 87.3369C123.893 115.44 118.621 127.153 114.385 136.566C113.512 138.505 112.687 140.338 111.983 142.234L111.437 143.7C110.055 147.406 108.769 150.852 107.972 154.124C101.034 154.104 94.2849 151.14 89.1529 145.784V145.785ZM90.2179 183.685C88.1919 183.179 86.3699 182.3 85.3009 181.571C86.1939 181.151 87.7829 180.579 90.5389 180.011C103.876 177.266 105.936 175.328 110.434 169.617C111.465 168.307 112.634 166.823 114.253 165.015L114.255 165.013C116.666 162.313 117.769 162.771 119.769 163.601C121.39 164.271 122.969 166.303 123.609 168.539C123.912 169.595 124.252 171.599 123.139 173.159C113.743 186.315 100.051 186.146 90.2179 183.685ZM160.017 248.637C143.701 252.133 137.924 243.808 134.117 234.291C131.66 228.147 130.452 200.441 131.309 169.844C131.32 169.437 131.262 169.044 131.15 168.674C131.05 167.943 130.897 167.221 130.694 166.512C129.42 162.06 126.315 158.336 122.59 156.792C121.11 156.179 118.394 155.054 115.13 155.889C115.826 153.021 117.033 149.782 118.342 146.275L118.891 144.8C119.509 143.137 120.285 141.414 121.105 139.59C125.538 129.742 131.609 116.253 125.02 85.7799C122.552 74.3659 114.31 68.7919 101.816 70.0869C94.3259 70.8619 87.4729 73.8839 84.0549 75.6169C83.3199 75.9889 82.6479 76.3489 82.0199 76.6989C82.9739 65.1989 86.5779 43.7069 100.06 30.1089C108.549 21.5489 119.854 17.3209 133.628 17.5489C160.768 17.9929 178.172 31.9209 187.994 43.5279C196.458 53.5289 201.041 63.6039 202.87 69.0379C189.115 67.6389 179.76 70.3539 175.018 77.1339C164.701 91.8819 180.662 120.506 188.333 134.263C189.74 136.784 190.954 138.963 191.336 139.889C193.834 145.943 197.068 149.985 199.429 152.935C200.153 153.839 200.855 154.716 201.389 155.482C197.223 156.683 189.74 159.458 190.422 173.329C189.872 180.289 185.961 212.875 183.974 224.388C181.351 239.598 175.754 245.263 160.017 248.638V248.637ZM228.121 170.701C223.861 172.678 216.732 174.161 209.96 174.48C202.48 174.83 198.672 173.642 197.776 172.911C197.356 164.267 200.573 163.364 203.978 162.408C204.513 162.258 205.035 162.111 205.539 161.935C205.852 162.19 206.195 162.443 206.571 162.691C212.583 166.659 223.306 167.087 238.445 163.962L238.611 163.929C236.569 165.838 233.075 168.4 228.121 170.701Z" fill="white"/>
</svg>
