<svg width="256" height="269" viewBox="0 0 256 269" fill="none" xmlns="http://www.w3.org/2000/svg">
<g clip-path="url(#clip0_50_2)">
<path d="M234.153 0.00298866C234.474 -0.0176496 234.795 0.0523084 235.078 0.204903C235.362 0.357498 235.597 0.586603 235.757 0.866152C235.916 1.1457 235.994 1.46447 235.982 1.78619C235.969 2.10791 235.867 2.41967 235.686 2.68599L169.388 92.743C169.148 93.0141 168.853 93.2311 168.522 93.3797C168.192 93.5283 167.834 93.6052 167.472 93.6052C167.11 93.6052 166.752 93.5283 166.421 93.3797C166.091 93.2311 165.796 93.0141 165.556 92.743L142.179 66.684C141.897 66.3915 141.553 66.166 141.172 66.0242C140.792 65.8824 140.384 65.8279 139.979 65.8648C139.575 65.9017 139.184 66.0289 138.835 66.2372C138.486 66.4454 138.188 66.7293 137.964 67.068L123.784 85.079C123.564 85.5768 123.483 86.1251 123.551 86.6652C123.618 87.2053 123.832 87.7169 124.168 88.145L166.322 131.832C166.562 132.103 166.857 132.32 167.188 132.469C167.518 132.618 167.876 132.695 168.238 132.695C168.601 132.695 168.959 132.618 169.289 132.469C169.62 132.32 169.915 132.103 170.155 131.832L252.93 38.71C253.169 38.4528 253.479 38.2725 253.82 38.1919C254.162 38.1113 254.52 38.1341 254.848 38.2573C255.177 38.3806 255.462 38.5988 255.666 38.8841C255.87 39.1695 255.985 39.5092 255.996 39.86V266.345C256.012 266.601 255.973 266.857 255.882 267.097C255.791 267.336 255.65 267.554 255.469 267.735C255.288 267.916 255.07 268.057 254.831 268.147C254.591 268.238 254.335 268.277 254.079 268.261H1.91995C1.66418 268.277 1.40799 268.238 1.16832 268.147C0.928656 268.057 0.710995 267.916 0.529751 267.735C0.348507 267.554 0.207817 267.336 0.116998 267.097C0.0261796 266.857 -0.0126956 266.601 0.00294739 266.345V1.91999C-0.0128433 1.66413 0.0259222 1.40785 0.116675 1.16811C0.207428 0.92837 0.348096 0.710657 0.529356 0.529397C0.710616 0.348137 0.928329 0.207469 1.16807 0.116716C1.40781 0.0259635 1.66409 -0.0128021 1.91995 0.00298866H234.153ZM169.005 152.91C163.359 152.811 157.751 153.856 152.52 155.982C147.289 158.109 142.543 161.273 138.568 165.284C134.593 169.295 131.472 174.069 129.392 179.319C127.312 184.568 126.317 190.185 126.467 195.83C126.467 222.273 145.628 239.135 170.537 239.135C182.068 239.422 193.376 235.922 202.729 229.171C203.149 228.79 203.418 228.271 203.488 227.709C203.558 227.146 203.425 226.578 203.112 226.105L196.214 215.758C195.839 215.329 195.32 215.052 194.754 214.981C194.189 214.911 193.617 215.051 193.148 215.375C187.153 219.469 180.096 221.733 172.838 221.89C159.424 221.89 150.993 213.459 149.461 203.495C149.475 203.296 149.56 203.109 149.7 202.968C149.841 202.828 150.028 202.743 150.227 202.729H208.094C208.691 202.688 209.252 202.433 209.675 202.01C210.098 201.587 210.353 201.026 210.393 200.429V198.129C210.393 171.304 193.531 152.909 169.005 152.909V152.91ZM111.905 138.347C100.265 128.832 85.5366 123.923 70.5159 124.551C44.4569 124.551 28.3619 139.88 28.3619 158.275C28.3619 200.046 91.9769 186.633 91.9769 206.178C91.9769 212.309 85.8449 218.441 72.8159 218.441C60.4412 218.543 48.5022 213.877 39.4759 205.411C39.2096 205.162 38.893 204.972 38.5475 204.856C38.202 204.739 37.8355 204.697 37.4726 204.733C37.1097 204.769 36.7587 204.883 36.4431 205.066C36.1276 205.249 35.8547 205.497 35.6429 205.794L25.6799 219.59C25.3671 220.063 25.2338 220.632 25.3042 221.194C25.3747 221.757 25.6442 222.275 26.0639 222.656C36.4109 232.236 50.9739 238.752 71.2839 238.752C101.175 238.752 115.738 223.422 116.504 203.495C116.504 162.107 52.8889 173.987 52.8889 156.359C52.8889 149.844 58.6379 145.245 68.6009 145.245C79.5847 145.094 90.2819 148.75 98.8759 155.592C99.126 155.797 99.4146 155.95 99.7245 156.041C100.035 156.133 100.36 156.162 100.681 156.126C101.002 156.091 101.313 155.991 101.596 155.834C101.878 155.676 102.126 155.464 102.325 155.209L112.289 141.796C112.494 141.546 112.647 141.257 112.738 140.947C112.83 140.637 112.859 140.312 112.823 139.991C112.788 139.67 112.688 139.359 112.531 139.076C112.373 138.794 112.161 138.546 111.906 138.347H111.905ZM169.388 169.771C179.811 169.188 188.81 176.998 189.699 187.4C189.685 187.599 189.6 187.786 189.46 187.927C189.319 188.067 189.132 188.152 188.933 188.166H149.843C149.644 188.152 149.457 188.067 149.316 187.927C149.176 187.786 149.091 187.599 149.077 187.4C150.359 177.202 159.112 169.605 169.388 169.771V169.771Z" fill="#2CB134"/>
</g>
<defs>
<clipPath id="clip0_50_2">
<rect width="256" height="269" fill="white"/>
</clipPath>
</defs>
</svg>
