<svg width="32" height="32" viewBox="0 0 32 32" fill="none" xmlns="http://www.w3.org/2000/svg">
<path d="M24 21V9H22V23H30V21H24Z" fill="black"/>
<path d="M18 9H14C13.4696 9 12.9609 9.21071 12.5858 9.58579C12.2107 9.96086 12 10.4696 12 11V21C12 21.5304 12.2107 22.0391 12.5858 22.4142C12.9609 22.7893 13.4696 23 14 23H15V25C15 25.5304 15.2107 26.0391 15.5858 26.4142C15.9609 26.7893 16.4696 27 17 27H19V25H17V23H18C18.5304 23 19.0391 22.7893 19.4142 22.4142C19.7893 22.0391 20 21.5304 20 21V11C20 10.4696 19.7893 9.96086 19.4142 9.58579C19.0391 9.21071 18.5304 9 18 9ZM14 21V11H18V21H14Z" fill="black"/>
<path d="M8 23H2V21H8V17H4C3.46957 17 2.96086 16.7893 2.58579 16.4142C2.21071 16.0391 2 15.5304 2 15V11C2 10.4696 2.21071 9.96086 2.58579 9.58579C2.96086 9.21071 3.46957 9 4 9H10V11H4V15H8C8.53043 15 9.03914 15.2107 9.41421 15.5858C9.78929 15.9609 10 16.4696 10 17V21C10 21.5304 9.78929 22.0391 9.41421 22.4142C9.03914 22.7893 8.53043 23 8 23Z" fill="black"/>
</svg>
